<?xml version="1.0" standalone="no"?><!DOCTYPE svg PUBLIC "-//W3C//DTD SVG 1.1//EN" "http://www.w3.org/Graphics/SVG/1.1/DTD/svg11.dtd"><svg t="1674556463023" class="icon" viewBox="0 0 1024 1024" version="1.1" xmlns="http://www.w3.org/2000/svg" p-id="19024" xmlns:xlink="http://www.w3.org/1999/xlink" width="200" height="200"><path d="M573.44 184.32c34.816 0 61.44 26.624 61.44 61.44v409.6c0 34.816-26.624 61.44-61.44 61.44s-61.44-26.624-61.44-61.44V245.76c0-34.816 26.624-61.44 61.44-61.44zM368.64 389.12c34.816 0 61.44 26.624 61.44 61.44v204.8c0 34.816-26.624 61.44-61.44 61.44s-61.44-26.624-61.44-61.44V450.56c0-34.816 26.624-61.44 61.44-61.44z" fill="#00E28B" opacity=".3" p-id="19025"></path><path d="M225.28 798.72h614.4c22.528 0 40.96 18.432 40.96 40.96s-18.432 40.96-40.96 40.96H184.32c-22.528 0-40.96-18.432-40.96-40.96V184.32c0-22.528 18.432-40.96 40.96-40.96s40.96 18.432 40.96 40.96v614.4z" fill="#00E28B" p-id="19026"></path><path d="M778.24 471.04c34.816 0 61.44 26.624 61.44 61.44v122.88c0 34.816-26.624 61.44-61.44 61.44s-61.44-26.624-61.44-61.44v-122.88c0-34.816 26.624-61.44 61.44-61.44z" fill="#00E28B" opacity=".3" p-id="19027"></path></svg>